<svg xmlns="http://www.w3.org/2000/svg" version="1.1" xmlns:xlink="http://www.w3.org/1999/xlink" xmlns:svgjs="http://svgjs.dev/svgjs" width="2000" height="388" viewBox="0 0 2000 388"><g transform="matrix(1,0,0,1,-1.2121212121210192,-1.223747680890483)"><svg viewBox="0 0 396 77" data-background-color="#ffffff" preserveAspectRatio="xMidYMid meet" height="388" width="2000" xmlns="http://www.w3.org/2000/svg" xmlns:xlink="http://www.w3.org/1999/xlink"><g id="tight-bounds" transform="matrix(1,0,0,1,0.23999999999995225,0.2428571428571331)"><svg viewBox="0 0 395.52 76.5142857142857" height="76.5142857142857" width="395.52"><g><svg viewBox="0 0 395.52 76.5142857142857" height="76.5142857142857" width="395.52"><g><svg viewBox="0 0 395.52 76.5142857142857" height="76.5142857142857" width="395.52"><g id="textblocktransform"><svg viewBox="0 0 395.52 76.5142857142857" height="76.5142857142857" width="395.52" id="textblock"><g><svg viewBox="0 0 395.52 76.5142857142857" height="76.5142857142857" width="395.52"><g transform="matrix(1,0,0,1,0,0)"><svg width="395.52" viewBox="2.0999999999999996 -41.25 218.37999999999997 42.25" height="76.5142857142857" data-palette-color="#31302e"><g class="wordmark-text-0" data-fill-palette-color="primary" id="text-0"><path d="M34.85-13.4L34.85-13.4 34.85-31.5Q34.85-35.45 34.65-37.35L34.65-37.35 30-37.95Q29.7-38.85 30-39.75L30-39.75Q33.15-39.6 36.1-39.6L36.1-39.6Q39.35-39.6 42.15-39.8L42.15-39.8Q42.35-38.7 42.15-37.95L42.15-37.95 37.6-37.45 37.6 0 34.95 0 12.9-29.85Q11.35-31.9 9.25-35.2L9.25-35.2Q9.5-32.9 9.5-29.65L9.5-29.65 9.5-8.15Q9.5-4.2 9.7-2.3L9.7-2.3 14.35-1.7Q14.65-0.8 14.35 0.1L14.35 0.1Q10.05 0 8.25 0L8.25 0Q5.3 0 2.2 0.15L2.2 0.15Q2-0.95 2.2-1.7L2.2-1.7 6.75-2.2 6.75-31.65Q6.75-35.6 6.55-37.5L6.55-37.5 2.4-38.1Q2.1-38.95 2.4-39.8L2.4-39.8 12.2-39.8 32.25-12.5Q32.65-11.95 33.13-11.2 33.6-10.45 34.18-9.4 34.75-8.35 35.1-7.8L35.1-7.8Q34.85-10.8 34.85-13.4ZM54.4-18.6L54.4-18.6 54.4-2.55 58.45-1.8Q58.5-1.55 58.52-1.35 58.55-1.15 58.55-0.9L58.55-0.9Q58.55-0.65 58.52-0.38 58.5-0.1 58.45 0.2L58.45 0.2Q55.3 0.05 52 0.05L52 0.05Q50.85 0.05 49.22 0.08 47.6 0.1 45.5 0.15L45.5 0.15Q45.35-0.3 45.35-0.8L45.35-0.8Q45.35-1.25 45.5-1.8L45.5-1.8 49.45-2.35Q49.55-3.75 49.6-5.33 49.65-6.9 49.65-8.7L49.65-8.7 49.65-19.35Q49.65-22.65 49.5-24.25L49.5-24.25 45.55-24.75Q45.45-25 45.45-25.6L45.45-25.6Q45.45-25.85 45.45-26.1 45.45-26.35 45.55-26.65L45.55-26.65Q48.95-26.85 54.15-27.7L54.15-27.7Q54.6-27.2 54.65-26.7L54.65-26.7Q54.4-25.3 54.4-18.6ZM47.1-36.45L47.1-36.45Q47-36.7 47-36.98 47-37.25 47-37.5L47-37.5Q47-38.85 48.12-39.68 49.25-40.5 50.9-40.5L50.9-40.5Q52.45-40.5 53.42-39.58 54.4-38.65 54.4-37.05L54.4-37.05Q54.4-35.75 53.27-34.95 52.15-34.15 50.4-34.15L50.4-34.15Q49.2-34.15 48.27-34.75 47.35-35.35 47.1-36.45ZM69-32.7L69-32.7 69-25.55 76.05-25.55Q76.15-24.95 76.15-24.65L76.15-24.65Q76.15-24.2 76.05-23.6L76.05-23.6 69-22.55 69-8.8Q69-5.1 69.67-3.58 70.34-2.05 71.8-2.05L71.8-2.05Q73.09-2.05 75.84-3.1L75.84-3.1Q76.34-2.65 76.55-1.4L76.55-1.4Q75.05-0.5 74.27-0.08 73.5 0.35 72.32 0.68 71.15 1 69.84 1L69.84 1Q67.34 1 65.77-0.93 64.2-2.85 64.2-6.8L64.2-6.8 64.2-23.15 60.7-23.6Q60.6-24.1 60.6-24.45L60.6-24.45Q60.6-24.85 60.7-25.55L60.7-25.55Q62.1-25.8 63.12-26.43 64.15-27.05 64.84-28.18 65.55-29.3 65.92-30.18 66.3-31.05 66.84-32.7L66.84-32.7Q67.3-32.85 67.95-32.85L67.95-32.85Q68.55-32.85 69-32.7ZM82.39-8.7L82.39-32.45Q82.39-35.75 82.24-37.35L82.24-37.35 78.29-37.85Q78.09-38.6 78.29-39.75L78.29-39.75Q81.64-40 86.84-40.8L86.84-40.8Q87.29-40.3 87.34-39.8L87.34-39.8Q87.09-38.5 87.09-31.7L87.09-31.7 87.09-22.25Q90.79-27.35 95.99-27.35L95.99-27.35Q99.09-27.35 101.29-25.8 103.49-24.25 103.49-20.5L103.49-20.5 103.49-2.55 107.54-1.8Q107.74-1 107.54 0.2L107.54 0.2Q104.39 0.05 101.14 0.05L101.14 0.05Q98.84 0.05 94.64 0.15L94.64 0.15Q94.34-0.8 94.64-1.8L94.64-1.8 98.59-2.35Q98.79-5.1 98.79-8.7L98.79-8.7 98.79-18Q98.79-21.5 97.92-23.05 97.04-24.6 94.74-24.6L94.74-24.6Q92.84-24.6 90.77-23.2 88.69-21.8 87.09-19.15L87.09-19.15 87.09-2.55 91.14-1.8Q91.34-1 91.14 0.2L91.14 0.2Q87.99 0.05 84.74 0.05L84.74 0.05Q82.44 0.05 78.24 0.15L78.24 0.15Q77.94-0.8 78.24-1.8L78.24-1.8 82.19-2.35Q82.39-5.1 82.39-8.7L82.39-8.7ZM118.74-18.6L118.74-18.6 118.74-2.55 122.79-1.8Q122.84-1.55 122.87-1.35 122.89-1.15 122.89-0.9L122.89-0.9Q122.89-0.65 122.87-0.38 122.84-0.1 122.79 0.2L122.79 0.2Q119.64 0.05 116.34 0.05L116.34 0.05Q115.19 0.05 113.56 0.08 111.94 0.1 109.84 0.15L109.84 0.15Q109.69-0.3 109.69-0.8L109.69-0.8Q109.69-1.25 109.84-1.8L109.84-1.8 113.79-2.35Q113.89-3.75 113.94-5.33 113.99-6.9 113.99-8.7L113.99-8.7 113.99-19.35Q113.99-22.65 113.84-24.25L113.84-24.25 109.89-24.75Q109.79-25 109.79-25.6L109.79-25.6Q109.79-25.85 109.79-26.1 109.79-26.35 109.89-26.65L109.89-26.65Q113.29-26.85 118.49-27.7L118.49-27.7Q118.94-27.2 118.99-26.7L118.99-26.7Q118.74-25.3 118.74-18.6ZM111.44-36.45L111.44-36.45Q111.34-36.7 111.34-36.98 111.34-37.25 111.34-37.5L111.34-37.5Q111.34-38.85 112.47-39.68 113.59-40.5 115.24-40.5L115.24-40.5Q116.79-40.5 117.77-39.58 118.74-38.65 118.74-37.05L118.74-37.05Q118.74-35.75 117.62-34.95 116.49-34.15 114.74-34.15L114.74-34.15Q113.54-34.15 112.62-34.75 111.69-35.35 111.44-36.45ZM146.14-8.7L146.14-17.85Q146.14-21.7 145.11-23.25 144.09-24.8 141.69-24.8L141.69-24.8Q137.99-24.8 134.24-19.25L134.24-19.25 134.24-2.55 138.29-1.8Q138.49-1 138.29 0.2L138.29 0.2Q135.14 0.05 131.84 0.05L131.84 0.05Q129.54 0.05 125.34 0.15L125.34 0.15Q125.04-0.8 125.34-1.8L125.34-1.8 129.29-2.35Q129.49-5.1 129.49-8.7L129.49-8.7 129.49-22.4Q129.49-23.4 129.34-24.25L129.34-24.25 125.39-24.75Q125.19-25.5 125.39-26.65L125.39-26.65Q128.84-26.9 133.99-27.7L133.99-27.7Q134.44-27.2 134.49-26.7L134.49-26.7Q134.24-25.4 134.24-22.25L134.24-22.25Q138.19-27.7 143.14-27.7L143.14-27.7Q150.89-27.7 150.89-20.35L150.89-20.35 150.89-2.55 154.94-1.8Q155.14-1 154.94 0.2L154.94 0.2Q151.79 0.05 148.49 0.05L148.49 0.05Q146.19 0.05 141.99 0.15L141.99 0.15Q141.69-0.8 141.99-1.8L141.99-1.8 145.94-2.35Q146.14-5.1 146.14-8.7L146.14-8.7ZM161.28-5.55L161.28-5.55Q162.63-5.55 163.56-4.67 164.49-3.8 164.49-2.5L164.49-2.5Q164.49-1.2 163.56-0.28 162.63 0.65 161.34 0.65L161.34 0.65Q160.03 0.65 159.11-0.28 158.19-1.2 158.19-2.5L158.19-2.5Q158.19-3.8 159.09-4.67 159.99-5.55 161.28-5.55ZM177.53-14.65L173.08-2.2 177.13-1.7Q177.33-0.95 177.13 0.15L177.13 0.15Q173.98 0 171.83 0L171.83 0Q170.63 0 166.43 0.1L166.43 0.1Q166.13-0.8 166.43-1.7L166.43-1.7 169.73-2.3Q170.53-3.5 171.73-6.75L171.73-6.75 184.63-41.25 186.38-41.25 200.88-2.2 204.93-1.7Q205.13-0.95 204.93 0.15L204.93 0.15Q201.78 0 197.88 0L197.88 0Q194.98 0 190.78 0.1L190.78 0.1Q190.48-0.8 190.78-1.7L190.78-1.7 194.93-2.3 190.53-14.65 177.53-14.65ZM184.18-33.7L184.18-33.7 184.13-33.7Q183.53-31.35 182.18-27.55L182.18-27.55 178.43-17.15 189.63-17.15 185.98-27.55Q184.93-30.6 184.18-33.7ZM215.98-31.65L215.98-31.65 215.98-2.2 220.03-1.7Q220.23-0.95 220.03 0.15L220.03 0.15Q216.88 0 213.18 0L213.18 0Q210.48 0 206.28 0.1L206.28 0.1Q205.98-0.8 206.28-1.7L206.28-1.7 210.43-2.3Q210.63-4.2 210.63-8.15L210.63-8.15 210.63-37.6 206.58-38.1Q206.38-38.85 206.58-39.95L206.58-39.95Q209.33-39.75 213.43-39.75L213.43-39.75Q217.08-39.75 220.33-39.9L220.33-39.9Q220.63-39 220.33-38.1L220.33-38.1 216.18-37.5Q215.98-35.6 215.98-31.65Z" fill="#31302e" data-fill-palette-color="primary"></path></g></svg></g></svg></g></svg></g></svg></g></svg></g><defs></defs></svg><rect width="395.52" height="76.5142857142857" fill="none" stroke="none" visibility="hidden"></rect></g></svg></g></svg>